<svg width="70" height="19" viewBox="0 0 70 19" fill="none" xmlns="http://www.w3.org/2000/svg">
  <g id="falroz">
    <path d="M12.8457 1.37542L10.7891 4.74467C10.7676 4.47456 10.7173 4.16536 10.6384 3.81706C10.5594 3.46165 10.4266 3.12757 10.24 2.81481C10.0605 2.50206 9.80926 2.23906 9.48623 2.02581C9.17038 1.80546 8.76481 1.69529 8.2695 1.69529C7.75983 1.69529 7.35066 1.7948 7.04199 1.99383C6.73332 2.19285 6.49644 2.4914 6.33133 2.88945C6.16623 3.2875 6.05497 3.78152 5.99754 4.37149C5.94011 4.96147 5.9114 5.6474 5.9114 6.42929H9.68005V7.85802H5.9114V18.7548H2.26119V7.85802H0V6.42929H2.26119C2.26119 5.2991 2.38322 4.32884 2.62729 3.51852C2.87135 2.70819 3.24104 2.04358 3.73635 1.52469C4.23166 0.998691 4.85259 0.614852 5.59914 0.373176C6.35287 0.124392 7.23222 0 8.23719 0C8.84018 0 9.37856 0.0426487 9.85233 0.127946C10.3333 0.206135 10.7568 0.312757 11.1229 0.447811C11.4962 0.575758 11.8228 0.721474 12.1028 0.884961C12.3827 1.04845 12.6304 1.21193 12.8457 1.37542Z" fill="url(#paint0_linear_13_26)"/>
    <path d="M23.6133 18.7548H19.9739V17.2834C19.5431 17.8663 19.0227 18.2999 18.4126 18.5842C17.8096 18.8614 17.1456 19 16.4205 19C15.473 19 14.626 18.833 13.8794 18.4989C13.1329 18.1648 12.5012 17.7099 11.9843 17.1341C11.4675 16.5513 11.0727 15.8689 10.7999 15.087C10.5271 14.3051 10.3907 13.4663 10.3907 12.5707C10.3907 11.6751 10.5271 10.8363 10.7999 10.0544C11.0727 9.27254 11.4675 8.59372 11.9843 8.01796C12.5012 7.43509 13.1329 6.97662 13.8794 6.64254C14.626 6.30846 15.473 6.14141 16.4205 6.14141C16.9015 6.14141 17.3573 6.2125 17.788 6.35466C18.2259 6.49682 18.6243 6.6994 18.9832 6.9624C19.3493 7.21829 19.6688 7.53105 19.9415 7.90067C20.2215 8.26319 20.4404 8.66835 20.5984 9.11616L22.2135 6.43996H23.6133V18.7548ZM19.9523 12.5707C19.9523 12.2508 19.9344 11.9132 19.8985 11.5578C19.8698 11.2024 19.8159 10.8505 19.737 10.5022C19.658 10.1539 19.5467 9.82342 19.4032 9.51066C19.2668 9.1908 19.0873 8.91003 18.8648 8.66835C18.6494 8.41957 18.3874 8.22409 18.0788 8.08193C17.7701 7.93977 17.4112 7.86869 17.002 7.86869C16.5928 7.86869 16.2375 7.94332 15.936 8.09259C15.6345 8.23475 15.3761 8.43023 15.1607 8.67901C14.9454 8.92069 14.7659 9.20146 14.6224 9.52132C14.486 9.84119 14.3783 10.1753 14.2993 10.5236C14.2204 10.8719 14.1629 11.2237 14.1271 11.5791C14.0983 11.9274 14.084 12.258 14.084 12.5707C14.084 12.8835 14.0983 13.2175 14.1271 13.573C14.1629 13.9284 14.2204 14.2802 14.2993 14.6285C14.3783 14.9768 14.486 15.3109 14.6224 15.6308C14.7659 15.9506 14.9454 16.2349 15.1607 16.4837C15.3761 16.7254 15.6345 16.9209 15.936 17.0701C16.2375 17.2123 16.5928 17.2834 17.002 17.2834C17.3753 17.2834 17.7055 17.2088 17.9926 17.0595C18.2869 16.9031 18.5418 16.697 18.7571 16.4411C18.9796 16.1852 19.1663 15.8938 19.317 15.5668C19.4678 15.2398 19.5898 14.9022 19.6831 14.5539C19.7764 14.2056 19.8446 13.8608 19.8877 13.5196C19.9308 13.1713 19.9523 12.855 19.9523 12.5707Z" fill="url(#paint1_linear_13_26)"/>
    <path d="M30.3 18.7548H26.6605V0.767677H28.0603L30.3 4.5101V18.7548Z" fill="url(#paint2_linear_13_26)"/>
    <path d="M43.9102 7.5275L41.8643 10.8861C41.7782 10.6018 41.6669 10.2819 41.5305 9.92649C41.3941 9.57108 41.2255 9.24055 41.0245 8.93491C40.8235 8.62215 40.583 8.3627 40.303 8.15657C40.0231 7.94332 39.7 7.8367 39.3339 7.8367C38.9966 7.8367 38.7023 7.922 38.451 8.09259C38.2069 8.26319 37.9988 8.48709 37.8265 8.76431C37.6542 9.03442 37.5106 9.34362 37.3958 9.69192C37.2881 10.0331 37.202 10.3814 37.1374 10.7368C37.0799 11.0851 37.0405 11.4227 37.0189 11.7497C36.9974 12.0696 36.9866 12.3468 36.9866 12.5814V18.7548H33.3364V6.43996H34.7362L36.2113 9.30808C36.4123 8.84605 36.6421 8.42312 36.9005 8.03928C37.1589 7.64834 37.4568 7.31425 37.7942 7.03704C38.1316 6.75271 38.512 6.53236 38.9355 6.37598C39.3662 6.2196 39.8508 6.14141 40.3892 6.14141C40.6691 6.14141 40.9814 6.16629 41.326 6.21605C41.6705 6.2587 42.0079 6.33689 42.3381 6.45062C42.6683 6.55724 42.9734 6.6994 43.2533 6.8771C43.5333 7.05481 43.7522 7.27161 43.9102 7.5275Z" fill="url(#paint3_linear_13_26)"/>
    <path d="M58.2526 12.5707C58.2526 13.2104 58.1664 13.8111 57.9942 14.3726C57.8219 14.9342 57.5814 15.453 57.2727 15.9293C56.9712 16.4055 56.6051 16.8356 56.1744 17.2194C55.7437 17.5961 55.27 17.916 54.7531 18.179C54.2434 18.442 53.6943 18.6446 53.1057 18.7868C52.5242 18.9289 51.9248 19 51.3075 19C50.6902 19 50.0908 18.9289 49.5093 18.7868C48.9279 18.6446 48.3787 18.442 47.8619 18.179C47.3522 17.916 46.882 17.5961 46.4513 17.2194C46.0206 16.8356 45.6509 16.4055 45.3423 15.9293C45.0408 15.453 44.8039 14.9342 44.6316 14.3726C44.4593 13.804 44.3732 13.2033 44.3732 12.5707C44.3732 11.9381 44.4593 11.341 44.6316 10.7795C44.8039 10.2108 45.0408 9.68836 45.3423 9.21212C45.6509 8.73588 46.0206 8.30939 46.4513 7.93266C46.882 7.54882 47.3522 7.2254 47.8619 6.9624C48.3787 6.6994 48.9279 6.49682 49.5093 6.35466C50.0908 6.2125 50.6902 6.14141 51.3075 6.14141C51.9248 6.14141 52.5242 6.2125 53.1057 6.35466C53.6943 6.49682 54.2434 6.6994 54.7531 6.9624C55.27 7.2254 55.7437 7.54882 56.1744 7.93266C56.6051 8.30939 56.9712 8.73588 57.2727 9.21212C57.5814 9.68836 57.8219 10.2108 57.9942 10.7795C58.1664 11.341 58.2526 11.9381 58.2526 12.5707ZM54.5485 12.5707C54.5485 12.2295 54.527 11.8706 54.4839 11.4938C54.448 11.11 54.3834 10.7368 54.2901 10.3743C54.1968 10.0047 54.0676 9.65282 53.9025 9.31874C53.7446 8.97755 53.5471 8.68257 53.3103 8.43378C53.0734 8.17789 52.7898 7.97531 52.4596 7.82604C52.1294 7.66966 51.7454 7.59147 51.3075 7.59147C50.8911 7.59147 50.5215 7.66966 50.1984 7.82604C49.8754 7.98242 49.5919 8.19211 49.3478 8.45511C49.1109 8.711 48.9099 9.00954 48.7448 9.35073C48.5869 9.69192 48.4577 10.0473 48.3572 10.4169C48.2567 10.7795 48.1849 11.1491 48.1418 11.5258C48.0988 11.8954 48.0772 12.2437 48.0772 12.5707C48.0772 12.8977 48.0988 13.2495 48.1418 13.6263C48.1849 13.9959 48.2567 14.3655 48.3572 14.7351C48.4577 15.1048 48.5869 15.4602 48.7448 15.8013C48.9099 16.1354 49.1109 16.434 49.3478 16.697C49.5919 16.9529 49.8754 17.159 50.1984 17.3154C50.5215 17.4718 50.8911 17.5499 51.3075 17.5499C51.7382 17.5499 52.1186 17.4753 52.4489 17.326C52.7791 17.1697 53.0626 16.9635 53.2995 16.7076C53.5436 16.4517 53.7446 16.1568 53.9025 15.8227C54.0604 15.4886 54.186 15.1367 54.2793 14.7671C54.3798 14.3975 54.448 14.0243 54.4839 13.6476C54.527 13.2709 54.5485 12.9119 54.5485 12.5707Z" fill="url(#paint4_linear_13_26)"/>
    <path d="M70 18.7548H59.4693V17.326L65.9837 7.86869H59.4693V6.43996H70V7.86869L63.4856 17.326H70V18.7548Z" fill="url(#paint5_linear_13_26)"/>
  </g>
  <defs>
    <linearGradient id="paint0_linear_13_26" x1="1.95578e-07" y1="9.5" x2="70" y2="9.5" gradientUnits="userSpaceOnUse">
      <stop stop-color="#9E4B88"/>
      <stop offset="0.489583" stop-color="#CA6678"/>
      <stop offset="1" stop-color="#E98A77"/>
    </linearGradient>
    <linearGradient id="paint1_linear_13_26" x1="1.95578e-07" y1="9.5" x2="70" y2="9.5" gradientUnits="userSpaceOnUse">
      <stop stop-color="#9E4B88"/>
      <stop offset="0.489583" stop-color="#CA6678"/>
      <stop offset="1" stop-color="#E98A77"/>
    </linearGradient>
    <linearGradient id="paint2_linear_13_26" x1="1.95578e-07" y1="9.5" x2="70" y2="9.5" gradientUnits="userSpaceOnUse">
      <stop stop-color="#9E4B88"/>
      <stop offset="0.489583" stop-color="#CA6678"/>
      <stop offset="1" stop-color="#E98A77"/>
    </linearGradient>
    <linearGradient id="paint3_linear_13_26" x1="1.95578e-07" y1="9.5" x2="70" y2="9.5" gradientUnits="userSpaceOnUse">
      <stop stop-color="#9E4B88"/>
      <stop offset="0.489583" stop-color="#CA6678"/>
      <stop offset="1" stop-color="#E98A77"/>
    </linearGradient>
    <linearGradient id="paint4_linear_13_26" x1="1.95578e-07" y1="9.5" x2="70" y2="9.5" gradientUnits="userSpaceOnUse">
      <stop stop-color="#9E4B88"/>
      <stop offset="0.489583" stop-color="#CA6678"/>
      <stop offset="1" stop-color="#E98A77"/>
    </linearGradient>
    <linearGradient id="paint5_linear_13_26" x1="1.95578e-07" y1="9.5" x2="70" y2="9.5" gradientUnits="userSpaceOnUse">
      <stop stop-color="#9E4B88"/>
      <stop offset="0.489583" stop-color="#CA6678"/>
      <stop offset="1" stop-color="#E98A77"/>
    </linearGradient>
  </defs>
</svg>
